<?xml version="1.0" encoding="utf-8"?>
<!-- Generator: Adobe Illustrator 18.1.1, SVG Export Plug-In . SVG Version: 6.00 Build 0)  -->
<svg version="1.1" id="Слой_1" xmlns="http://www.w3.org/2000/svg" xmlns:xlink="http://www.w3.org/1999/xlink" x="0px" y="0px"
	 viewBox="0 0 31 20" enable-background="new 0 0 31 20" xml:space="preserve">
<g>
	<path fill="#0E364E" d="M0,4c0-1.3,0-2.7,0-4c10.3,0,20.7,0,31,0c0,1.3,0,2.7,0,4C20.7,4,10.3,4,0,4z"/>
	<path fill="#0E364E" d="M0,8c10.3,0,20.7,0,31,0c0,1.3,0,2.7,0,4c-10.3,0-20.7,0-31,0C0,10.7,0,9.3,0,8z"/>
	<path fill="#0E364E" d="M0,16c10.3,0,20.7,0,31,0c0,1.3,0,2.7,0,4c-10.3,0-20.7,0-31,0C0,18.7,0,17.3,0,16z"/>
</g>
</svg>
