<?xml version="1.0" encoding="utf-8"?>
<!-- Generator: Adobe Illustrator 18.1.1, SVG Export Plug-In . SVG Version: 6.00 Build 0)  -->
<svg version="1.1" id="Слой_1" xmlns="http://www.w3.org/2000/svg" xmlns:xlink="http://www.w3.org/1999/xlink" x="0px" y="0px"
	 viewBox="0 0 841.9 595.3" enable-background="new 0 0 841.9 595.3" xml:space="preserve">
<g>
	<g>
		<path fill="#7D3D29" d="M703.7,500L566.8,363.1c-20.8,32.7-47.6,59.5-80.4,80.4l136.9,136.9c20.8,20.8,56.6,20.8,80.4,0
			C724.5,556.6,724.5,520.9,703.7,500z"/>
		<path fill="#7D3D29" d="M569.8,223.2C569.8,101.2,468.6,0,346.5,0S123.3,101.2,123.3,223.2s101.2,223.2,223.2,223.2
			S569.8,345.3,569.8,223.2z M346.5,389.9c-92.3,0-166.7-74.4-166.7-166.7S254.3,56.6,346.5,56.6S513.2,131,513.2,223.2
			S438.8,389.9,346.5,389.9z"/>
		<path fill="#7D3D29" d="M215.6,223.2h35.7c0-50.6,41.7-92.3,92.3-92.3V92.3C275.1,92.3,215.6,151.8,215.6,223.2z"/>
	</g>
</g>
</svg>
