<?xml version="1.0" encoding="utf-8"?>
<!-- Generator: Adobe Illustrator 18.1.1, SVG Export Plug-In . SVG Version: 6.00 Build 0)  -->
<svg version="1.1" id="Слой_1" xmlns="http://www.w3.org/2000/svg" xmlns:xlink="http://www.w3.org/1999/xlink" x="0px" y="0px"
	 viewBox="0 0 841.9 595.3" enable-background="new 0 0 841.9 595.3" xml:space="preserve">
<g>
	<path fill="#7D3D29" d="M0,134.7C0,99.4,0,61.4,0,26.1c279.7,0,562.2,0,841.9,0c0,35.3,0,73.3,0,108.6
		C562.2,134.7,279.7,134.7,0,134.7z"/>
	<path fill="#7D3D29" d="M0,243.3c279.7,0,562.2,0,841.9,0c0,35.3,0,73.3,0,108.6c-279.7,0-562.2,0-841.9,0C0,316.7,0,278.6,0,243.3
		z"/>
	<path fill="#7D3D29" d="M0,460.6c279.7,0,562.2,0,841.9,0c0,35.3,0,73.3,0,108.6c-279.7,0-562.2,0-841.9,0C0,533.9,0,495.9,0,460.6
		z"/>
</g>
</svg>
