<?xml version="1.0" encoding="utf-8"?>
<!-- Generator: Adobe Illustrator 16.0.0, SVG Export Plug-In . SVG Version: 6.00 Build 0)  -->
<!DOCTYPE svg PUBLIC "-//W3C//DTD SVG 1.1//EN" "http://www.w3.org/Graphics/SVG/1.1/DTD/svg11.dtd">
<svg version="1.1" id="Слой_1" xmlns="http://www.w3.org/2000/svg" xmlns:xlink="http://www.w3.org/1999/xlink" x="0px" y="0px"
	 width="5442.52px" height="595.281px" viewBox="0 0 5442.52 595.281" enable-background="new 0 0 5442.52 595.281"
	 xml:space="preserve">
<g>
	<path fill="#7D3D29" d="M2259.917,119.056c0-38.693,0-80.363,0-119.057c306.57,0,616.115,0,922.686,0c0,38.693,0,80.363,0,119.057
		C2876.032,119.056,2566.487,119.056,2259.917,119.056z"/>
	<path fill="#7D3D29" d="M2259.917,238.112c306.57,0,616.115,0,922.686,0c0,38.693,0,80.363,0,119.057
		c-306.57,0-616.115,0-922.686,0C2259.917,318.475,2259.917,276.805,2259.917,238.112z"/>
	<path fill="#7D3D29" d="M2259.917,476.224c306.57,0,616.115,0,922.686,0c0,38.693,0,80.363,0,119.057
		c-306.57,0-616.115,0-922.686,0C2259.917,556.588,2259.917,514.918,2259.917,476.224z"/>
</g>
</svg>
