<?xml version="1.0" encoding="utf-8"?>
<!-- Generator: Adobe Illustrator 18.1.1, SVG Export Plug-In . SVG Version: 6.00 Build 0)  -->
<svg version="1.1" id="Слой_1" xmlns="http://www.w3.org/2000/svg" xmlns:xlink="http://www.w3.org/1999/xlink" x="0px" y="0px"
	 viewBox="0 0 23.6 17" enable-background="new 0 0 23.6 17" xml:space="preserve">
<path fill="#4A4949" d="M0.5,0L0,0v1V16v0.5L0.1,17h23l0.5-0.1v-1V1V0H0.5z M14.2,8.7l-2,2c-0.2,0.2-0.6,0.2-0.8,0l-2-2.1l0,0L1.8,1
	h20L14.2,8.7L14.2,8.7z M7.9,8.7L1,15.4V1.7L7.9,8.7z M8.6,9.4l2.1,2.1c0.3,0.3,0.7,0.4,1.1,0.4c0.4,0,0.8-0.1,1.1-0.4l2.1-2.1
	l6.8,6.6H1.8L8.6,9.4z M15.6,8.7l6.9-7v13.6L15.6,8.7z"/>
</svg>
