<?xml version="1.0" encoding="utf-8"?>
<!-- Generator: Adobe Illustrator 18.1.1, SVG Export Plug-In . SVG Version: 6.00 Build 0)  -->
<svg version="1.1" id="Слой_1" xmlns="http://www.w3.org/2000/svg" xmlns:xlink="http://www.w3.org/1999/xlink" x="0px" y="0px"
	 viewBox="0 0 841.9 595.3" enable-background="new 0 0 841.9 595.3" xml:space="preserve">
<path fill="#7D3D29" d="M25.3,0H7.8v35v525.2v17.5l3.5,17.5h805.4l17.5-3.5v-35V35V0H25.3z M505,304.6l-70,70c-7,7-21,7-28,0
	l-70-73.5l0,0L70.8,35h700.3L505,304.6L505,304.6z M284.4,304.6L42.8,539.3V59.5L284.4,304.6z M308.9,329.2l73.5,73.5
	c10.5,10.5,24.5,14,38.5,14s28-3.5,38.5-14l73.5-73.5l238.1,231.1H70.8L308.9,329.2z M554,304.6L795.6,59.5v476.2L554,304.6z"/>
</svg>
