<?xml version="1.0" encoding="utf-8"?>
<!-- Generator: Adobe Illustrator 18.1.1, SVG Export Plug-In . SVG Version: 6.00 Build 0)  -->
<svg version="1.1" id="Слой_1" xmlns="http://www.w3.org/2000/svg" xmlns:xlink="http://www.w3.org/1999/xlink" x="0px" y="0px"
	 viewBox="0 0 24.5 24.1" enable-background="new 0 0 24.5 24.1" xml:space="preserve">
<g>
	<g>
		<path fill="#4A4949" d="M16.2,24.1L16.2,24.1c-2.1,0-4.3-1.2-6.7-3.5l-6-6c-1.9-1.9-3-3.6-3.4-5.3c-0.5-2,0.1-3.9,1.8-5.6l1-1
			C3.6,2,4.6,1.9,5.4,2.3C7,3.1,8.7,6,8.7,6.1C9,6.6,9.1,7.2,9,7.7C8.9,8.1,8.7,8.4,8.3,8.6c-0.4,0.4-1,0.9-1.1,1
			c-0.6,0.9-0.5,1.6,0.2,2.4l4.7,4.7c0.8,0.8,1.5,0.9,2.4,0.2c0.1-0.1,0.6-0.7,1.1-1.2C16,15,17,14.8,18,15.4c0.1,0.1,3,1.8,3.8,3.3
			c0.4,0.8,0.3,1.8-0.4,2.5l-1,1C19.1,23.5,17.7,24.1,16.2,24.1z M4.4,3.1c-0.3,0-0.6,0.1-0.8,0.3l-1,1C1.2,5.8,0.7,7.3,1.1,9
			c0.3,1.5,1.4,3.1,3.1,4.9l6,6c2.2,2.2,4.2,3.2,6,3.2l0,0c1.3,0,2.4-0.6,3.5-1.6l1-1c0.3-0.3,0.4-0.9,0.2-1.3
			c-0.6-1.1-2.7-2.5-3.4-2.9C17,16,16.6,16,16.4,16.3c-0.4,0.5-1.1,1.3-1.3,1.4c-1.3,0.9-2.6,0.8-3.7-0.4l-4.7-4.7
			C5.6,11.6,5.5,10.3,6.4,9c0.2-0.3,0.9-0.9,1.4-1.3C7.9,7.6,8,7.5,8,7.4c0.1-0.2,0-0.5-0.2-0.8C7.4,5.8,6,3.8,5,3.2
			C4.8,3.1,4.6,3.1,4.4,3.1z"/>
	</g>
	<g>
		<path fill="#4A4949" d="M16.3,19.6C16.3,19.6,16.3,19.6,16.3,19.6c-2.9-0.3-4.7-2.1-4.8-2.2c-0.2-0.2-0.2-0.5,0-0.7
			c0.2-0.2,0.5-0.2,0.7,0c0,0,1.7,1.6,4.2,1.9c0.3,0,0.5,0.3,0.4,0.5C16.8,19.5,16.6,19.6,16.3,19.6z"/>
	</g>
	<g>
		<path fill="#4A4949" d="M7.4,13.2c-0.1,0-0.2,0-0.3-0.1C7,13,4.8,11.1,4.5,8.3c0-0.3,0.2-0.5,0.4-0.5c0.3,0,0.5,0.2,0.5,0.4
			c0.3,2.4,2.2,4.1,2.3,4.1c0.2,0.2,0.2,0.5,0.1,0.7C7.7,13.1,7.5,13.2,7.4,13.2z"/>
	</g>
	<g>
		<path fill="#4A4949" d="M24,13.8c-0.3,0-0.5-0.2-0.5-0.5C23.5,6.5,18,1,11.2,1c-0.3,0-0.5-0.2-0.5-0.5S10.9,0,11.2,0
			c7.3,0,13.3,6,13.3,13.3C24.5,13.6,24.3,13.8,24,13.8z"/>
	</g>
	<g>
		<path fill="#4A4949" d="M21.2,13.8c-0.3,0-0.5-0.2-0.5-0.5c0-5.2-4.2-9.5-9.5-9.5c-0.3,0-0.5-0.2-0.5-0.5s0.2-0.5,0.5-0.5
			c5.8,0,10.5,4.7,10.5,10.5C21.7,13.6,21.4,13.8,21.2,13.8z"/>
	</g>
	<g>
		<path fill="#4A4949" d="M18.3,13.8c-0.3,0-0.5-0.2-0.5-0.5c0-3.7-3-6.6-6.6-6.6c-0.3,0-0.5-0.2-0.5-0.5s0.2-0.5,0.5-0.5
			c4.2,0,7.6,3.4,7.6,7.6C18.8,13.6,18.6,13.8,18.3,13.8z"/>
	</g>
</g>
</svg>
