<?xml version="1.0" encoding="utf-8"?>
<!-- Generator: Adobe Illustrator 18.1.1, SVG Export Plug-In . SVG Version: 6.00 Build 0)  -->
<svg version="1.1" id="Слой_1" xmlns="http://www.w3.org/2000/svg" xmlns:xlink="http://www.w3.org/1999/xlink" x="0px" y="0px"
	 viewBox="0 0 24.5 24.1" enable-background="new 0 0 24.5 24.1" xml:space="preserve">
<path fill="#0E364E" d="M16.2,24.1L16.2,24.1c-2.1,0-4.3-1.2-6.7-3.5l-6-6c-1.9-1.9-3-3.6-3.4-5.3c-0.5-2,0.1-3.9,1.8-5.6l1-1
	C3.6,2,4.6,1.9,5.4,2.3C7,3.1,8.7,6,8.7,6.1C9,6.6,9.1,7.2,9,7.7C8.9,8.1,8.7,8.4,8.3,8.6c-0.4,0.4-1,0.9-1.1,1
	c-0.6,0.9-0.5,1.6,0.2,2.4l4.7,4.7c0.8,0.8,1.5,0.9,2.4,0.2c0.1-0.1,0.6-0.7,1.1-1.2C16,15,17,14.8,18,15.4c0.1,0.1,3,1.8,3.8,3.3
	c0.4,0.8,0.3,1.8-0.4,2.5l-1,1C19.1,23.5,17.7,24.1,16.2,24.1z"/>
<g>
	<path fill="#0E364E" d="M24,13.8c-0.3,0-0.5-0.2-0.5-0.5C23.5,6.5,18,1,11.2,1c-0.3,0-0.5-0.2-0.5-0.5S10.9,0,11.2,0
		c7.3,0,13.3,6,13.3,13.3C24.5,13.6,24.3,13.8,24,13.8z"/>
</g>
<g>
	<path fill="#0E364E" d="M21.2,13.8c-0.3,0-0.5-0.2-0.5-0.5c0-5.2-4.2-9.5-9.5-9.5c-0.3,0-0.5-0.2-0.5-0.5s0.2-0.5,0.5-0.5
		c5.8,0,10.5,4.7,10.5,10.5C21.7,13.6,21.4,13.8,21.2,13.8z"/>
</g>
<g>
	<path fill="#0E364E" d="M18.3,13.8c-0.3,0-0.5-0.2-0.5-0.5c0-3.7-3-6.6-6.6-6.6c-0.3,0-0.5-0.2-0.5-0.5s0.2-0.5,0.5-0.5
		c4.2,0,7.6,3.4,7.6,7.6C18.8,13.6,18.6,13.8,18.3,13.8z"/>
</g>
</svg>
