<?xml version="1.0" encoding="utf-8"?>
<!-- Generator: Adobe Illustrator 18.1.1, SVG Export Plug-In . SVG Version: 6.00 Build 0)  -->
<svg version="1.1" id="Слой_1" xmlns="http://www.w3.org/2000/svg" xmlns:xlink="http://www.w3.org/1999/xlink" x="0px" y="0px"
	 viewBox="0 0 841.9 595.3" enable-background="new 0 0 841.9 595.3" xml:space="preserve">
<path fill="#7D3D29" d="M518.5,595.3L518.5,595.3c-51.9,0-106.2-29.6-165.5-86.5L204.8,360.6c-46.9-46.9-74.1-88.9-84-130.9
	c-12.4-49.4,2.5-96.3,44.5-138.3L190,66.7c17.3-17.3,42-19.8,61.8-9.9c39.5,19.8,81.5,91.4,81.5,93.9c7.4,12.4,9.9,27.2,7.4,39.5
	c-2.5,9.9-7.4,17.3-17.3,22.2c-9.9,9.9-24.7,22.2-27.2,24.7c-14.8,22.2-12.4,39.5,4.9,59.3l116.1,116.1
	c19.8,19.8,37.1,22.2,59.3,4.9c2.5-2.5,14.8-17.3,27.2-29.6c9.9-17.3,34.6-22.2,59.3-7.4c2.5,2.5,74.1,44.5,93.9,81.5
	c9.9,19.8,7.4,44.5-9.9,61.8l-24.7,24.7C590.1,580.5,555.6,595.3,518.5,595.3z"/>
<g>
	<path fill="#7D3D29" d="M711.2,340.9c-7.4,0-12.4-4.9-12.4-12.4c0-168-135.9-303.8-303.8-303.8c-7.4,0-12.4-4.9-12.4-12.4
		S387.6,0,395,0c180.3,0,328.5,148.2,328.5,328.5C723.5,335.9,718.6,340.9,711.2,340.9z"/>
</g>
<g>
	<path fill="#7D3D29" d="M642,340.9c-7.4,0-12.4-4.9-12.4-12.4c0-128.4-103.7-234.7-234.7-234.7c-7.4,0-12.4-4.9-12.4-12.4
		c0-7.4,4.9-12.4,12.4-12.4c143.3,0,259.4,116.1,259.4,259.4C654.4,335.9,647,340.9,642,340.9z"/>
</g>
<g>
	<path fill="#7D3D29" d="M570.4,340.9c-7.4,0-12.4-4.9-12.4-12.4c0-91.4-74.1-163-163-163c-7.4,0-12.4-4.9-12.4-12.4
		s4.9-12.4,12.4-12.4c103.7,0,187.7,84,187.7,187.7C582.7,335.9,577.8,340.9,570.4,340.9z"/>
</g>
</svg>
