<?xml version="1.0" encoding="utf-8"?>
<!-- Generator: Adobe Illustrator 18.1.1, SVG Export Plug-In . SVG Version: 6.00 Build 0)  -->
<svg version="1.1" id="Слой_1" xmlns="http://www.w3.org/2000/svg" xmlns:xlink="http://www.w3.org/1999/xlink" x="0px" y="0px"
	 viewBox="0 0 20 20" enable-background="new 0 0 20 20" xml:space="preserve">
<g>
	<g>
		<path fill="#4A4949" d="M19.5,16.8l-4.6-4.6c-0.7,1.1-1.6,2-2.7,2.7l4.6,4.6c0.7,0.7,1.9,0.7,2.7,0C20.2,18.7,20.2,17.5,19.5,16.8
			z"/>
		<path fill="#4A4949" d="M15,7.5C15,3.4,11.6,0,7.5,0C3.4,0,0,3.4,0,7.5S3.4,15,7.5,15C11.6,15,15,11.6,15,7.5z M7.5,13.1
			c-3.1,0-5.6-2.5-5.6-5.6s2.5-5.6,5.6-5.6c3.1,0,5.6,2.5,5.6,5.6S10.6,13.1,7.5,13.1z"/>
		<path fill="#4A4949" d="M3.1,7.5h1.2c0-1.7,1.4-3.1,3.1-3.1V3.1C5.1,3.1,3.1,5.1,3.1,7.5z"/>
	</g>
</g>
</svg>
